{"asset":{"version":"2.0","generator":"Blockbench 3.9.1 glTF exporter"},"scenes":[{"nodes":[3],"name":"blockbench_export"}],"scene":0,"nodes":[{"translation":[0,-0.0625,0],"name":"5050809e-8f06-7330-d327-d4415d0c078e","mesh":0},{"translation":[0,-0.0625,0],"name":"bea59940-2cbd-0e1b-0b6c-5c29afc16729","mesh":1},{"rotation":[-1,0,0,6.123233995736766e-17],"translation":[0,0.4375,0],"name":"rotation","children":[0,1]},{"translation":[0,-0.125,0],"name":"body","children":[2]}],"bufferViews":[{"buffer":0,"byteOffset":0,"byteLength":432,"target":34962,"byteStride":12},{"buffer":0,"byteOffset":432,"byteLength":432,"target":34962,"byteStride":12},{"buffer":0,"byteOffset":864,"byteLength":288,"target":34962,"byteStride":8},{"buffer":0,"byteOffset":1152,"byteLength":432,"target":34962,"byteStride":12},{"buffer":0,"byteOffset":1584,"byteLength":432,"target":34962,"byteStride":12},{"buffer":0,"byteOffset":2016,"byteLength":288,"target":34962,"byteStride":8}],"buffers":[{"byteLength":2304,"uri":"data:application/octet-stream;base64,"}],"accessors":[{"bufferView":0,"componentType":5126,"count":36,"max":[0.25,0.125,0.25],"min":[-0.25,0,-0.25],"type":"VEC3"},{"bufferView":1,"componentType":5126,"count":36,"max":[1,1,1],"min":[-1,-1,-1],"type":"VEC3"},{"bufferView":2,"componentType":5126,"count":36,"max":[0.99951171875,0.59326171875],"min":[0.00048828125,0.28173828125],"type":"VEC2"},{"bufferView":3,"componentType":5126,"count":36,"max":[0.1875,0,0.1875],"min":[-0.1875,-0.4375,-0.1875],"type":"VEC3"},{"bufferView":4,"componentType":5126,"count":36,"max":[1,1,1],"min":[-1,-1,-1],"type":"VEC3"},{"bufferView":5,"componentType":5126,"count":36,"max":[0.74951171875,0.99951171875],"min":[0.00048828125,0.59423828125],"type":"VEC2"}],"materials":[{"pbrMetallicRoughness":{"baseColorFactor":[1,0.6549019607843137,0.6431372549019608,1],"metallicFactor":0,"roughnessFactor":1,"baseColorTexture":{"index":0}},"doubleSided":true},{"pbrMetallicRoughness":{"baseColorFactor":[0.6352941176470588,0.9215686274509803,1,1],"metallicFactor":0,"roughnessFactor":1,"baseColorTexture":{"index":0}},"doubleSided":true}],"textures":[{"sampler":0,"source":0}],"samplers":[{"magFilter":9728,"minFilter":9728,"wrapS":10497,"wrapT":10497}],"images":[{"mimeType":"image/png","uri":"data:image/png;base64,"}],"meshes":[{"primitives":[{"mode":4,"attributes":{"POSITION":0,"NORMAL":1,"TEXCOORD_0":2},"material":0}]},{"primitives":[{"mode":4,"attributes":{"POSITION":3,"NORMAL":4,"TEXCOORD_0":5},"material":1}]}]}