{"asset":{"version":"2.0","generator":"Blockbench 3.9.1 glTF exporter"},"scenes":[{"nodes":[3],"name":"blockbench_export"}],"scene":0,"nodes":[{"name":"9c5373ae-8103-29c1-de15-8bbca9f6f102","mesh":0},{"name":"168666ef-d2dc-db06-f2fd-3fe94d8490a0","mesh":1},{"name":"77964e4f-39bb-5bdc-f356-b2b3141934f8","mesh":2},{"name":"bone","children":[0,1,2]}],"bufferViews":[{"buffer":0,"byteOffset":0,"byteLength":432,"target":34962,"byteStride":12},{"buffer":0,"byteOffset":432,"byteLength":432,"target":34962,"byteStride":12},{"buffer":0,"byteOffset":864,"byteLength":288,"target":34962,"byteStride":8},{"buffer":0,"byteOffset":1152,"byteLength":432,"target":34962,"byteStride":12},{"buffer":0,"byteOffset":1584,"byteLength":432,"target":34962,"byteStride":12},{"buffer":0,"byteOffset":2016,"byteLength":288,"target":34962,"byteStride":8},{"buffer":0,"byteOffset":2304,"byteLength":288,"target":34962,"byteStride":12},{"buffer":0,"byteOffset":2592,"byteLength":288,"target":34962,"byteStride":12},{"buffer":0,"byteOffset":2880,"byteLength":192,"target":34962,"byteStride":8}],"buffers":[{"byteLength":3072,"uri":"data:application/octet-stream;base64,"}],"accessors":[{"bufferView":0,"componentType":5126,"count":36,"max":[-0.375,1,0.125],"min":[-0.5,0,-0.125],"type":"VEC3"},{"bufferView":1,"componentType":5126,"count":36,"max":[1,1,1],"min":[-1,-1,-1],"type":"VEC3"},{"bufferView":2,"componentType":5126,"count":36,"max":[0.25,1],"min":[0,0],"type":"VEC2"},{"bufferView":3,"componentType":5126,"count":36,"max":[0.5,1,0.125],"min":[0.375,0,-0.125],"type":"VEC3"},{"bufferView":4,"componentType":5126,"count":36,"max":[1,1,1],"min":[-1,-1,-1],"type":"VEC3"},{"bufferView":5,"componentType":5126,"count":36,"max":[0.25,1],"min":[0,0],"type":"VEC2"},{"bufferView":6,"componentType":5126,"count":24,"max":[0.375,0.9375,0.0625],"min":[-0.375,0.8125,-0.0625],"type":"VEC3"},{"bufferView":7,"componentType":5126,"count":24,"max":[0,1,1],"min":[0,-1,-1],"type":"VEC3"},{"bufferView":8,"componentType":5126,"count":24,"max":[1,1],"min":[0.25,0.8125],"type":"VEC2"}],"materials":[{"pbrMetallicRoughness":{"baseColorFactor":[0.9098039215686274,0.7411764705882353,0.4823529411764706,1],"metallicFactor":0,"roughnessFactor":1,"baseColorTexture":{"index":0}},"doubleSided":true},{"pbrMetallicRoughness":{"baseColorFactor":[0.4823529411764706,1,0.6392156862745098,1],"metallicFactor":0,"roughnessFactor":1,"baseColorTexture":{"index":0}},"doubleSided":true},{"pbrMetallicRoughness":{"baseColorFactor":[0.6352941176470588,0.9215686274509803,1,1],"metallicFactor":0,"roughnessFactor":1,"baseColorTexture":{"index":0}},"doubleSided":true}],"textures":[{"sampler":0,"source":0}],"samplers":[{"magFilter":9728,"minFilter":9728,"wrapS":10497,"wrapT":10497}],"images":[{"mimeType":"image/png","uri":"data:image/png;base64,"}],"meshes":[{"primitives":[{"mode":4,"attributes":{"POSITION":0,"NORMAL":1,"TEXCOORD_0":2},"material":0}]},{"primitives":[{"mode":4,"attributes":{"POSITION":3,"NORMAL":4,"TEXCOORD_0":5},"material":1}]},{"primitives":[{"mode":4,"attributes":{"POSITION":6,"NORMAL":7,"TEXCOORD_0":8},"material":2}]}]}