{"asset":{"version":"2.0","generator":"Blockbench 3.9.1 glTF exporter"},"scenes":[{"nodes":[52],"name":"blockbench_export"}],"scene":0,"nodes":[{"name":"2dc20434-ce6c-c700-a1f7-a26ec2bf0142","mesh":0},{"name":"body_sub_1","children":[0]},{"translation":[0,-1.5,0],"name":"body_flipped","children":[1]},{"translation":[0,-1.46875,0.515625],"name":"36b7d0ad-0d7b-65ca-ea41-a2c257137aa1","mesh":1},{"translation":[0,-0.03125,-0.515625],"name":"eye","children":[3]},{"translation":[0,-1.4375,-1.25],"name":"36c0443a-dec4-61e2-5608-c4f218794d17","mesh":2},{"translation":[0,-1.4375,-1.25],"name":"d33dfe08-0fd1-54d3-554a-4f38eac382c4","mesh":3},{"rotation":[0,-0.10886687485196457,0,0.9940563382223196],"translation":[0,-0.03125,0.375],"name":"tail3","children":[5,6]},{"translation":[0,-1.46875,-0.875],"name":"a32bb666-b376-9e4d-2107-8d1abbdbbe44","mesh":4},{"rotation":[0,-0.08715574274765817,0,0.9961946980917455],"translation":[0,-0.03125,0.875],"name":"tail2","children":[7,8]},{"translation":[0,-1.5,0],"name":"59a6496c-bd8d-f0d3-d064-62236c5d4657","mesh":5},{"rotation":[0,-0.04361938736533601,0,0.9990482215818578],"name":"tail1","children":[9,10]},{"translation":[0,-0.9375,-0.4375],"name":"a765e781-cd63-1fae-c8ed-83f6b3346a4f","mesh":6},{"rotation":[0.3826834323650898,0,0,0.9238795325112867],"translation":[0,0.15625,0],"name":"spine1_rotation","children":[12]},{"translation":[0,-0.71875,0.4375],"name":"spine1","children":[13]},{"translation":[0,-0.9375,0.4375],"name":"fb076795-0cd6-95d6-c13d-011320d58fbc","mesh":7},{"rotation":[-0.3826834323650898,0,0,0.9238795325112867],"translation":[0,0.15625,0],"name":"spine2_rotation","children":[15]},{"translation":[0,-0.71875,-0.4375],"name":"spine2","children":[16]},{"translation":[0.4375,-0.9375,0],"name":"505be416-20f0-0d46-075e-bc5e481d7dde","mesh":8},{"rotation":[0,0,0.3826834323650898,0.9238795325112867],"translation":[-0.875,0.15625,0],"name":"spine3_rotation","children":[18]},{"translation":[0.4375,-0.71875,0],"name":"spine3","children":[19]},{"translation":[-0.4375,-0.9375,0],"name":"bb7f390a-dae5-324c-b9e7-1c0fc24de49d","mesh":9},{"rotation":[0,0,-0.3826834323650898,0.9238795325112867],"translation":[0.875,0.15625,0],"name":"spine4_rotation","children":[21]},{"translation":[-0.4375,-0.71875,0],"name":"spine4","children":[22]},{"translation":[-0.4375,-0.5,0.4375],"name":"1a465b2b-04de-d866-4a25-e37032a8f676","mesh":10},{"rotation":[-0.6532814824381882,-0.2705980500730985,-0.27059805007309845,0.6532814824381883],"translation":[0.875,0.15625,0],"name":"spine5_rotation","children":[24]},{"translation":[-0.4375,-1.15625,-0.4375],"name":"spine5","children":[25]},{"translation":[0.4375,-0.5,0.4375],"name":"27d823aa-fc8a-9ec3-be03-b84891269fbc","mesh":11},{"rotation":[-0.6532814824381882,0.2705980500730985,0.27059805007309845,0.6532814824381883],"translation":[-0.875,0.15625,0],"name":"spine6_rotation","children":[27]},{"translation":[0.4375,-1.15625,-0.4375],"name":"spine6","children":[28]},{"translation":[0.4375,-0.5,-0.4375],"name":"c90e7c3b-277c-d67c-3dee-6033796c22d9","mesh":12},{"rotation":[0.6532814824381882,-0.2705980500730985,0.27059805007309845,0.6532814824381883],"translation":[-0.875,0.15625,0],"name":"spine7_rotation","children":[30]},{"translation":[0.4375,-1.15625,0.4375],"name":"spine7","children":[31]},{"translation":[-0.4375,-0.5,-0.4375],"name":"ddfd62c2-688d-c8ed-9e52-74f5f6c59a90","mesh":13},{"rotation":[0.6532814824381882,0.2705980500730985,-0.27059805007309845,0.6532814824381883],"translation":[0.875,0.15625,0],"name":"spine8_rotation","children":[33]},{"translation":[-0.4375,-1.15625,0.4375],"name":"spine8","children":[34]},{"translation":[0,-0.0625,-0.4375],"name":"2bacff23-7fa2-c4fd-7da0-771018120508","mesh":14},{"rotation":[0.9238795325112867,0,0,0.38268343236508984],"translation":[0,0.15625,0],"name":"spine9_rotation","children":[36]},{"translation":[0,-1.59375,0.4375],"name":"spine9","children":[37]},{"translation":[0,-0.0625,0.4375],"name":"6bb74b51-59f4-1086-b459-2cd6abbd2575","mesh":15},{"rotation":[-0.9238795325112867,0,0,0.38268343236508984],"translation":[0,0.15625,0],"name":"spine10_rotation","children":[39]},{"translation":[0,-1.59375,-0.4375],"name":"spine10","children":[40]},{"translation":[0.4375,-0.0625,0],"name":"833f2d5f-8129-41b4-bbd4-4e5a567729ca","mesh":16},{"rotation":[0,0,0.9238795325112867,0.38268343236508984],"translation":[-0.875,0.15625,0],"name":"spine11_rotation","children":[42]},{"translation":[0.4375,-1.59375,0],"name":"spine11","children":[43]},{"translation":[-0.4375,-0.0625,0],"name":"c8ab1e0c-db3f-bf57-fd40-e86b9e6a87d6","mesh":17},{"rotation":[0,0,-0.9238795325112867,0.38268343236508984],"translation":[0.875,0.15625,0],"name":"spine12_rotation","children":[45]},{"translation":[-0.4375,-1.59375,0],"name":"spine12","children":[46]},{"translation":[0,-1.5,0],"name":"92fbe5e4-f9d3-47a3-a79e-0919a6d10985","mesh":18},{"translation":[0,-1.5,0],"name":"0ad61ece-3b47-c087-251a-9c0ffbe502ef","mesh":19},{"translation":[0,-1.5,0],"name":"757c4707-4ece-7064-fdd1-24f1699ee4f2","mesh":20},{"translation":[0,-1.5,0],"name":"b9d34d26-070d-1a52-2e55-dda9b01a0901","mesh":21},{"translation":[0,1.5,-0.5625],"name":"body","children":[2,4,11,14,17,20,23,26,29,32,35,38,41,44,47,48,49,50,51]}],"bufferViews":[{"buffer":0,"byteOffset":0,"byteLength":432,"target":34962,"byteStride":12},{"buffer":0,"byteOffset":432,"byteLength":432,"target":34962,"byteStride":12},{"buffer":0,"byteOffset":864,"byteLength":288,"target":34962,"byteStride":8},{"buffer":0,"byteOffset":1152,"byteLength":432,"target":34962,"byteStride":12},{"buffer":0,"byteOffset":1584,"byteLength":432,"target":34962,"byteStride":12},{"buffer":0,"byteOffset":2016,"byteLength":288,"target":34962,"byteStride":8},{"buffer":0,"byteOffset":2304,"byteLength":432,"target":34962,"byteStride":12},{"buffer":0,"byteOffset":2736,"byteLength":432,"target":34962,"byteStride":12},{"buffer":0,"byteOffset":3168,"byteLength":288,"target":34962,"byteStride":8},{"buffer":0,"byteOffset":3456,"byteLength":432,"target":34962,"byteStride":12},{"buffer":0,"byteOffset":3888,"byteLength":432,"target":34962,"byteStride":12},{"buffer":0,"byteOffset":4320,"byteLength":288,"target":34962,"byteStride":8},{"buffer":0,"byteOffset":4608,"byteLength":432,"target":34962,"byteStride":12},{"buffer":0,"byteOffset":5040,"byteLength":432,"target":34962,"byteStride":12},{"buffer":0,"byteOffset":5472,"byteLength":288,"target":34962,"byteStride":8},{"buffer":0,"byteOffset":5760,"byteLength":432,"target":34962,"byteStride":12},{"buffer":0,"byteOffset":6192,"byteLength":432,"target":34962,"byteStride":12},{"buffer":0,"byteOffset":6624,"byteLength":288,"target":34962,"byteStride":8},{"buffer":0,"byteOffset":6912,"byteLength":432,"target":34962,"byteStride":12},{"buffer":0,"byteOffset":7344,"byteLength":432,"target":34962,"byteStride":12},{"buffer":0,"byteOffset":7776,"byteLength":288,"target":34962,"byteStride":8},{"buffer":0,"byteOffset":8064,"byteLength":432,"target":34962,"byteStride":12},{"buffer":0,"byteOffset":8496,"byteLength":432,"target":34962,"byteStride":12},{"buffer":0,"byteOffset":8928,"byteLength":288,"target":34962,"byteStride":8},{"buffer":0,"byteOffset":9216,"byteLength":432,"target":34962,"byteStride":12},{"buffer":0,"byteOffset":9648,"byteLength":432,"target":34962,"byteStride":12},{"buffer":0,"byteOffset":10080,"byteLength":288,"target":34962,"byteStride":8},{"buffer":0,"byteOffset":10368,"byteLength":432,"target":34962,"byteStride":12},{"buffer":0,"byteOffset":10800,"byteLength":432,"target":34962,"byteStride":12},{"buffer":0,"byteOffset":11232,"byteLength":288,"target":34962,"byteStride":8},{"buffer":0,"byteOffset":11520,"byteLength":432,"target":34962,"byteStride":12},{"buffer":0,"byteOffset":11952,"byteLength":432,"target":34962,"byteStride":12},{"buffer":0,"byteOffset":12384,"byteLength":288,"target":34962,"byteStride":8},{"buffer":0,"byteOffset":12672,"byteLength":432,"target":34962,"byteStride":12},{"buffer":0,"byteOffset":13104,"byteLength":432,"target":34962,"byteStride":12},{"buffer":0,"byteOffset":13536,"byteLength":288,"target":34962,"byteStride":8},{"buffer":0,"byteOffset":13824,"byteLength":432,"target":34962,"byteStride":12},{"buffer":0,"byteOffset":14256,"byteLength":432,"target":34962,"byteStride":12},{"buffer":0,"byteOffset":14688,"byteLength":288,"target":34962,"byteStride":8},{"buffer":0,"byteOffset":14976,"byteLength":432,"target":34962,"byteStride":12},{"buffer":0,"byteOffset":15408,"byteLength":432,"target":34962,"byteStride":12},{"buffer":0,"byteOffset":15840,"byteLength":288,"target":34962,"byteStride":8},{"buffer":0,"byteOffset":16128,"byteLength":432,"target":34962,"byteStride":12},{"buffer":0,"byteOffset":16560,"byteLength":432,"target":34962,"byteStride":12},{"buffer":0,"byteOffset":16992,"byteLength":288,"target":34962,"byteStride":8},{"buffer":0,"byteOffset":17280,"byteLength":432,"target":34962,"byteStride":12},{"buffer":0,"byteOffset":17712,"byteLength":432,"target":34962,"byteStride":12},{"buffer":0,"byteOffset":18144,"byteLength":288,"target":34962,"byteStride":8},{"buffer":0,"byteOffset":18432,"byteLength":432,"target":34962,"byteStride":12},{"buffer":0,"byteOffset":18864,"byteLength":432,"target":34962,"byteStride":12},{"buffer":0,"byteOffset":19296,"byteLength":288,"target":34962,"byteStride":8},{"buffer":0,"byteOffset":19584,"byteLength":432,"target":34962,"byteStride":12},{"buffer":0,"byteOffset":20016,"byteLength":432,"target":34962,"byteStride":12},{"buffer":0,"byteOffset":20448,"byteLength":288,"target":34962,"byteStride":8},{"buffer":0,"byteOffset":20736,"byteLength":432,"target":34962,"byteStride":12},{"buffer":0,"byteOffset":21168,"byteLength":432,"target":34962,"byteStride":12},{"buffer":0,"byteOffset":21600,"byteLength":288,"target":34962,"byteStride":8},{"buffer":0,"byteOffset":21888,"byteLength":432,"target":34962,"byteStride":12},{"buffer":0,"byteOffset":22320,"byteLength":432,"target":34962,"byteStride":12},{"buffer":0,"byteOffset":22752,"byteLength":288,"target":34962,"byteStride":8},{"buffer":0,"byteOffset":23040,"byteLength":432,"target":34962,"byteStride":12},{"buffer":0,"byteOffset":23472,"byteLength":432,"target":34962,"byteStride":12},{"buffer":0,"byteOffset":23904,"byteLength":288,"target":34962,"byteStride":8},{"buffer":0,"byteOffset":24192,"byteLength":432,"target":34962,"byteStride":12},{"buffer":0,"byteOffset":24624,"byteLength":432,"target":34962,"byteStride":12},{"buffer":0,"byteOffset":25056,"byteLength":288,"target":34962,"byteStride":8}],"buffers":[{"byteLength":25344,"uri":"data:application/octet-stream;base64,"}],"accessors":[{"bufferView":0,"componentType":5126,"count":36,"max":[-0.375,0.875,0.375],"min":[-0.5,0.125,-0.375],"type":"VEC3"},{"bufferView":1,"componentType":5126,"count":36,"max":[1,1,1],"min":[-1,-1,-1],"type":"VEC3"},{"bufferView":2,"componentType":5126,"count":36,"max":[0.437255859375,0.562255859375],"min":[0.000244140625,0.187744140625],"type":"VEC2"},{"bufferView":3,"componentType":5126,"count":36,"max":[0,0.53125,-0.453125],"min":[-0.125,0.40625,-0.515625],"type":"VEC3"},{"bufferView":4,"componentType":5126,"count":36,"max":[1,1,1],"min":[-1,-1,-1],"type":"VEC3"},{"bufferView":5,"componentType":5126,"count":36,"max":[0.218505859375,0.999755859375],"min":[0.125244140625,0.953369140625],"type":"VEC2"},{"bufferView":6,"componentType":5126,"count":36,"max":[0.0625,0.5625,1.625],"min":[-0.0625,0.4375,1.25],"type":"VEC3"},{"bufferView":7,"componentType":5126,"count":36,"max":[1,1,1],"min":[-1,-1,-1],"type":"VEC3"},{"bufferView":8,"componentType":5126,"count":36,"max":[0.890380859375,0.499755859375],"min":[0.640869140625,0.375244140625],"type":"VEC2"},{"bufferView":9,"componentType":5126,"count":36,"max":[0,0.78125,2],"min":[-0.0625,0.21875,1.4375],"type":"VEC3"},{"bufferView":10,"componentType":5126,"count":36,"max":[1,1,1],"min":[-1,-1,-1],"type":"VEC3"},{"bufferView":11,"componentType":5126,"count":36,"max":[0.702880859375,0.702880859375],"min":[0.390869140625,0.422119140625],"type":"VEC2"},{"bufferView":12,"componentType":5126,"count":36,"max":[0.09375,0.59375,1.3125],"min":[-0.09375,0.40625,0.875],"type":"VEC3"},{"bufferView":13,"componentType":5126,"count":36,"max":[1,1,1],"min":[-1,-1,-1],"type":"VEC3"},{"bufferView":14,"componentType":5126,"count":36,"max":[0.312255859375,0.156005859375],"min":[0.000244140625,0.000244140625],"type":"VEC2"},{"bufferView":15,"componentType":5126,"count":36,"max":[0.125,0.625,0.9375],"min":[-0.125,0.375,0.4375],"type":"VEC3"},{"bufferView":16,"componentType":5126,"count":36,"max":[1,1,1],"min":[-1,-1,-1],"type":"VEC3"},{"bufferView":17,"componentType":5126,"count":36,"max":[0.999755859375,0.999755859375],"min":[0.625244140625,0.812744140625],"type":"VEC2"},{"bufferView":18,"componentType":5126,"count":36,"max":[0.0625,1.25,0.5],"min":[-0.0625,0.6875,0.375],"type":"VEC3"},{"bufferView":19,"componentType":5126,"count":36,"max":[1,1,1],"min":[-1,-1,-1],"type":"VEC3"},{"bufferView":20,"componentType":5126,"count":36,"max":[0.124755859375,0.999755859375],"min":[0.000244140625,0.828369140625],"type":"VEC2"},{"bufferView":21,"componentType":5126,"count":36,"max":[0.0625,1.25,-0.375],"min":[-0.0625,0.6875,-0.5],"type":"VEC3"},{"bufferView":22,"componentType":5126,"count":36,"max":[1,1,1],"min":[-1,-1,-1],"type":"VEC3"},{"bufferView":23,"componentType":5126,"count":36,"max":[0.124755859375,0.999755859375],"min":[0.000244140625,0.828369140625],"type":"VEC2"},{"bufferView":24,"componentType":5126,"count":36,"max":[-0.375,1.25,0.0625],"min":[-0.5,0.6875,-0.0625],"type":"VEC3"},{"bufferView":25,"componentType":5126,"count":36,"max":[1,1,1],"min":[-1,-1,-1],"type":"VEC3"},{"bufferView":26,"componentType":5126,"count":36,"max":[0.124755859375,0.999755859375],"min":[0.000244140625,0.828369140625],"type":"VEC2"},{"bufferView":27,"componentType":5126,"count":36,"max":[0.5,1.25,0.0625],"min":[0.375,0.6875,-0.0625],"type":"VEC3"},{"bufferView":28,"componentType":5126,"count":36,"max":[1,1,1],"min":[-1,-1,-1],"type":"VEC3"},{"bufferView":29,"componentType":5126,"count":36,"max":[0.124755859375,0.999755859375],"min":[0.000244140625,0.828369140625],"type":"VEC2"},{"bufferView":30,"componentType":5126,"count":36,"max":[0.5,0.8125,-0.375],"min":[0.375,0.25,-0.5],"type":"VEC3"},{"bufferView":31,"componentType":5126,"count":36,"max":[1,1,1],"min":[-1,-1,-1],"type":"VEC3"},{"bufferView":32,"componentType":5126,"count":36,"max":[0.124755859375,0.999755859375],"min":[0.000244140625,0.828369140625],"type":"VEC2"},{"bufferView":33,"componentType":5126,"count":36,"max":[-0.375,0.8125,-0.375],"min":[-0.5,0.25,-0.5],"type":"VEC3"},{"bufferView":34,"componentType":5126,"count":36,"max":[1,1,1],"min":[-1,-1,-1],"type":"VEC3"},{"bufferView":35,"componentType":5126,"count":36,"max":[0.124755859375,0.999755859375],"min":[0.000244140625,0.828369140625],"type":"VEC2"},{"bufferView":36,"componentType":5126,"count":36,"max":[-0.375,0.8125,0.5],"min":[-0.5,0.25,0.375],"type":"VEC3"},{"bufferView":37,"componentType":5126,"count":36,"max":[1,1,1],"min":[-1,-1,-1],"type":"VEC3"},{"bufferView":38,"componentType":5126,"count":36,"max":[0.124755859375,0.999755859375],"min":[0.000244140625,0.828369140625],"type":"VEC2"},{"bufferView":39,"componentType":5126,"count":36,"max":[0.5,0.8125,0.5],"min":[0.375,0.25,0.375],"type":"VEC3"},{"bufferView":40,"componentType":5126,"count":36,"max":[1,1,1],"min":[-1,-1,-1],"type":"VEC3"},{"bufferView":41,"componentType":5126,"count":36,"max":[0.124755859375,0.999755859375],"min":[0.000244140625,0.828369140625],"type":"VEC2"},{"bufferView":42,"componentType":5126,"count":36,"max":[0.0625,0.375,0.5],"min":[-0.0625,-0.1875,0.375],"type":"VEC3"},{"bufferView":43,"componentType":5126,"count":36,"max":[1,1,1],"min":[-1,-1,-1],"type":"VEC3"},{"bufferView":44,"componentType":5126,"count":36,"max":[0.124755859375,0.999755859375],"min":[0.000244140625,0.828369140625],"type":"VEC2"},{"bufferView":45,"componentType":5126,"count":36,"max":[0.0625,0.375,-0.375],"min":[-0.0625,-0.1875,-0.5],"type":"VEC3"},{"bufferView":46,"componentType":5126,"count":36,"max":[1,1,1],"min":[-1,-1,-1],"type":"VEC3"},{"bufferView":47,"componentType":5126,"count":36,"max":[0.124755859375,0.999755859375],"min":[0.000244140625,0.828369140625],"type":"VEC2"},{"bufferView":48,"componentType":5126,"count":36,"max":[-0.375,0.375,0.0625],"min":[-0.5,-0.1875,-0.0625],"type":"VEC3"},{"bufferView":49,"componentType":5126,"count":36,"max":[1,1,1],"min":[-1,-1,-1],"type":"VEC3"},{"bufferView":50,"componentType":5126,"count":36,"max":[0.124755859375,0.999755859375],"min":[0.000244140625,0.828369140625],"type":"VEC2"},{"bufferView":51,"componentType":5126,"count":36,"max":[0.5,0.375,0.0625],"min":[0.375,-0.1875,-0.0625],"type":"VEC3"},{"bufferView":52,"componentType":5126,"count":36,"max":[1,1,1],"min":[-1,-1,-1],"type":"VEC3"},{"bufferView":53,"componentType":5126,"count":36,"max":[0.124755859375,0.999755859375],"min":[0.000244140625,0.828369140625],"type":"VEC2"},{"bufferView":54,"componentType":5126,"count":36,"max":[0.375,0.875,0.5],"min":[-0.375,0.125,-0.5],"type":"VEC3"},{"bufferView":55,"componentType":5126,"count":36,"max":[1,1,1],"min":[-1,-1,-1],"type":"VEC3"},{"bufferView":56,"componentType":5126,"count":36,"max":[0.874755859375,0.999755859375],"min":[0.000244140625,0.562744140625],"type":"VEC2"},{"bufferView":57,"componentType":5126,"count":36,"max":[0.375,1,0.375],"min":[-0.375,0.875,-0.375],"type":"VEC3"},{"bufferView":58,"componentType":5126,"count":36,"max":[1,1,1],"min":[-1,-1,-1],"type":"VEC3"},{"bufferView":59,"componentType":5126,"count":36,"max":[0.999755859375,0.374755859375],"min":[0.250244140625,0.156494140625],"type":"VEC2"},{"bufferView":60,"componentType":5126,"count":36,"max":[0.375,0.125,0.375],"min":[-0.375,0,-0.375],"type":"VEC3"},{"bufferView":61,"componentType":5126,"count":36,"max":[1,1,1],"min":[-1,-1,-1],"type":"VEC3"},{"bufferView":62,"componentType":5126,"count":36,"max":[0.999755859375,0.374755859375],"min":[0.250244140625,0.156494140625],"type":"VEC2"},{"bufferView":63,"componentType":5126,"count":36,"max":[0.5,0.875,0.375],"min":[0.375,0.125,-0.375],"type":"VEC3"},{"bufferView":64,"componentType":5126,"count":36,"max":[1,1,1],"min":[-1,-1,-1],"type":"VEC3"},{"bufferView":65,"componentType":5126,"count":36,"max":[0.437255859375,0.562255859375],"min":[0.000244140625,0.187744140625],"type":"VEC2"}],"materials":[{"pbrMetallicRoughness":{"baseColorFactor":[0.4823529411764706,1,0.6392156862745098,1],"metallicFactor":0,"roughnessFactor":1,"baseColorTexture":{"index":0}},"doubleSided":true},{"pbrMetallicRoughness":{"baseColorFactor":[0.9098039215686274,0.7411764705882353,0.4823529411764706,1],"metallicFactor":0,"roughnessFactor":1,"baseColorTexture":{"index":0}},"doubleSided":true},{"pbrMetallicRoughness":{"baseColorFactor":[0.7725490196078432,0.6509803921568628,0.9098039215686274,1],"metallicFactor":0,"roughnessFactor":1,"baseColorTexture":{"index":0}},"doubleSided":true},{"pbrMetallicRoughness":{"baseColorFactor":[0.6509803921568628,0.7843137254901961,1,1],"metallicFactor":0,"roughnessFactor":1,"baseColorTexture":{"index":0}},"doubleSided":true},{"pbrMetallicRoughness":{"baseColorFactor":[1,0.6549019607843137,0.6431372549019608,1],"metallicFactor":0,"roughnessFactor":1,"baseColorTexture":{"index":0}},"doubleSided":true},{"pbrMetallicRoughness":{"baseColorFactor":[1,0.9725490196078431,0.6,1],"metallicFactor":0,"roughnessFactor":1,"baseColorTexture":{"index":0}},"doubleSided":true},{"pbrMetallicRoughness":{"baseColorFactor":[0.7411764705882353,1,0.6509803921568628,1],"metallicFactor":0,"roughnessFactor":1,"baseColorTexture":{"index":0}},"doubleSided":true},{"pbrMetallicRoughness":{"baseColorFactor":[0.6352941176470588,0.9215686274509803,1,1],"metallicFactor":0,"roughnessFactor":1,"baseColorTexture":{"index":0}},"doubleSided":true}],"textures":[{"sampler":0,"source":0}],"samplers":[{"magFilter":9728,"minFilter":9728,"wrapS":10497,"wrapT":10497}],"images":[{"mimeType":"image/png","uri":"data:image/png;base64,"}],"meshes":[{"primitives":[{"mode":4,"attributes":{"POSITION":0,"NORMAL":1,"TEXCOORD_0":2},"material":0}]},{"primitives":[{"mode":4,"attributes":{"POSITION":3,"NORMAL":4,"TEXCOORD_0":5},"material":1}]},{"primitives":[{"mode":4,"attributes":{"POSITION":6,"NORMAL":7,"TEXCOORD_0":8},"material":2}]},{"primitives":[{"mode":4,"attributes":{"POSITION":9,"NORMAL":10,"TEXCOORD_0":11},"material":3}]},{"primitives":[{"mode":4,"attributes":{"POSITION":12,"NORMAL":13,"TEXCOORD_0":14},"material":4}]},{"primitives":[{"mode":4,"attributes":{"POSITION":15,"NORMAL":16,"TEXCOORD_0":17},"material":1}]},{"primitives":[{"mode":4,"attributes":{"POSITION":18,"NORMAL":19,"TEXCOORD_0":20},"material":5}]},{"primitives":[{"mode":4,"attributes":{"POSITION":21,"NORMAL":22,"TEXCOORD_0":23},"material":3}]},{"primitives":[{"mode":4,"attributes":{"POSITION":24,"NORMAL":25,"TEXCOORD_0":26},"material":6}]},{"primitives":[{"mode":4,"attributes":{"POSITION":27,"NORMAL":28,"TEXCOORD_0":29},"material":0}]},{"primitives":[{"mode":4,"attributes":{"POSITION":30,"NORMAL":31,"TEXCOORD_0":32},"material":5}]},{"primitives":[{"mode":4,"attributes":{"POSITION":33,"NORMAL":34,"TEXCOORD_0":35},"material":0}]},{"primitives":[{"mode":4,"attributes":{"POSITION":36,"NORMAL":37,"TEXCOORD_0":38},"material":3}]},{"primitives":[{"mode":4,"attributes":{"POSITION":39,"NORMAL":40,"TEXCOORD_0":41},"material":5}]},{"primitives":[{"mode":4,"attributes":{"POSITION":42,"NORMAL":43,"TEXCOORD_0":44},"material":7}]},{"primitives":[{"mode":4,"attributes":{"POSITION":45,"NORMAL":46,"TEXCOORD_0":47},"material":5}]},{"primitives":[{"mode":4,"attributes":{"POSITION":48,"NORMAL":49,"TEXCOORD_0":50},"material":2}]},{"primitives":[{"mode":4,"attributes":{"POSITION":51,"NORMAL":52,"TEXCOORD_0":53},"material":5}]},{"primitives":[{"mode":4,"attributes":{"POSITION":54,"NORMAL":55,"TEXCOORD_0":56},"material":6}]},{"primitives":[{"mode":4,"attributes":{"POSITION":57,"NORMAL":58,"TEXCOORD_0":59},"material":2}]},{"primitives":[{"mode":4,"attributes":{"POSITION":60,"NORMAL":61,"TEXCOORD_0":62},"material":0}]},{"primitives":[{"mode":4,"attributes":{"POSITION":63,"NORMAL":64,"TEXCOORD_0":65},"material":5}]}]}