<svg xmlns="http://www.w3.org/2000/svg" width="677" height="677" viewBox="0 0 677 677">
  <g transform="matrix(1 0 0 1 417 211)">
    <path class="blue" d="M57.2 344.2C46 343.6 35.9 339.1 28.2 331.5 22.1 325.3 18 317.5 16 308.3 15.5 305.7 15.4 294.8 15.3 169.4l-0.1-136.1 4.5 0.2c13.6 0.7 26.7 4.4 38.6 11 3.4 1.9 8.1 4.8 8.9 5.6 0.2 0.2 0.7 0.6 1.2 0.9 0.4 0.3 1.1 0.8 1.4 1.1 0.4 0.3 1.3 1.1 2.2 1.8 2 1.6 9.3 8.9 10.9 10.9 0.7 0.8 1.5 1.8 1.8 2.2 0.3 0.4 0.8 1 1.1 1.4 0.3 0.4 0.7 1 0.9 1.2 0.8 0.9 3.7 5.5 5.6 8.9 5.2 9.4 8.6 19.3 10.3 30.5 0.6 3.8 0.6 9.4 0.6 100 0 89.9 0 96.2-0.6 99.1-1.4 7.1-4.4 13.9-8.5 19.2-8.7 11.3-23 17.9-36.9 17zM-180 220.4c-9.4-0.8-19.8-3.5-28.2-7.2-5.4-2.4-14.4-7.5-16.3-9.3-0.2-0.2-0.7-0.6-1.2-0.9-0.4-0.3-1.1-0.8-1.4-1.1-0.4-0.3-1.3-1.1-2.2-1.8-2-1.6-9.3-8.9-10.9-10.9-0.7-0.8-1.5-1.8-1.8-2.2-0.3-0.4-0.8-1-1.1-1.4-0.3-0.4-0.7-1-0.9-1.2-0.8-0.9-3.7-5.5-5.6-8.9-5.2-9.4-8.6-19.3-10.3-30.5-0.6-3.8-0.6-9.4-0.6-100 0-89.9 0-96.2 0.6-99.1 1.4-7.1 4.4-13.9 8.5-19.2 8.4-10.9 20.9-17 34.8-17 8.1 0 14.9 1.8 21.9 5.7 11 6.2 18.6 16.9 21.4 30.2 0.5 2.6 0.6 13.5 0.7 138.9l0.1 136.1-3.1-0.1c-1.7 0-3.7-0.1-4.5-0.2z" style="fill:#6c80f6"/>
    <path class="white" d="m-253.9 308.6c-11.4-0.8-21.3-5.2-29-12.8-8.3-8.3-12.7-19.2-12.7-31.1 0-8.1 1.8-14.9 5.7-21.9 6.2-11 16.9-18.6 30.2-21.4 2.6-0.5 13.5-0.6 138.9-0.7l136.1-0.1-0.2 4.5c-0.7 13.6-4.4 26.7-11 38.6-1.9 3.4-4.8 8.1-5.6 8.9-0.2 0.2-0.6 0.7-0.9 1.2-0.3 0.4-0.8 1.1-1.1 1.4-0.3 0.4-1.1 1.3-1.8 2.2-1.6 2-8.9 9.3-10.9 10.9-0.8 0.7-1.8 1.5-2.2 1.8-0.4 0.3-1 0.8-1.4 1.1-0.4 0.3-1 0.7-1.2 0.9-0.9 0.8-5.5 3.7-8.9 5.6-9.2 5.1-18.8 8.4-30.1 10.3-3.5 0.6-9.3 0.6-98.1 0.7-51.9 0-95.1 0-96-0.1zm81.6-279.8c0.7-13.6 4.4-26.7 11-38.6 1.9-3.4 4.8-8.1 5.6-8.9 0.2-0.2 0.6-0.7 0.9-1.2 0.3-0.4 0.8-1.1 1.1-1.4 0.3-0.4 1.1-1.3 1.8-2.2 1.6-2 8.9-9.3 10.9-10.9 0.8-0.7 1.8-1.5 2.2-1.8 0.4-0.3 1-0.8 1.4-1.1 0.4-0.3 1-0.7 1.2-0.9 0.9-0.8 5.5-3.7 8.9-5.6 9.4-5.2 19.3-8.6 30.5-10.3 3.8-0.6 9.4-0.6 100-0.6 89.9 0 96.2 0 99.1 0.6 7.1 1.4 13.9 4.4 19.2 8.5 10.9 8.4 17 20.9 17 34.8 0 8.1-1.8 14.9-5.7 21.9-6.2 11-16.9 18.6-30.2 21.4-2.6 0.5-13.5 0.6-138.9 0.7l-136.1 0.1z" style="fill:#cbcbca"/>
  </g>
</svg>